PathFileType	4	(X/Y/Z)	18_1_25_p0_0-334_filt_butterworth.trc
DataRate	CameraRate	NumFrames	NumMarkers	Units	OrigDataRate	OrigDataStartFrame	OrigNumFrames
52.0	52.0	7	27	m	52.0	208	334
Frame#	Time	RHip			RKnee			RAnkle			RBigToe			RSmallToe			RHeel			LHip			LKnee			LAnkle			LBigToe			LSmallToe			LHeel			Neck			Head			Nose			RShoulder			RElbow			RWrist			RThumb			RIndex			RPinky			LShoulder			LElbow			LWrist			LThumb			LIndex			LPinky			
		X1	Y1	Z1	X2	Y2	Z2	X3	Y3	Z3	X4	Y4	Z4	X5	Y5	Z5	X6	Y6	Z6	X7	Y7	Z7	X8	Y8	Z8	X9	Y9	Z9	X10	Y10	Z10	X11	Y11	Z11	X12	Y12	Z12	X13	Y13	Z13	X14	Y14	Z14	X15	Y15	Z15	X16	Y16	Z16	X17	Y17	Z17	X18	Y18	Z18	X19	Y19	Z19	X20	Y20	Z20	X21	Y21	Z21	X22	Y22	Z22	X23	Y23	Z23	X24	Y24	Z24	X25	Y25	Z25	X26	Y26	Z26	X27	Y27	Z27	
208	4.0	0.26476384409307535	0.8183477730154257	0.5042511446744953	0.24222891897931703	0.39076855216054474	0.5451246141368028	0.2276880479513383	0.0022255211948882248	0.5840440786280835	0.21865932284264972	0.019012470811618096	0.38742454583466895	0.2761182651011236	0.006424946661448959	0.42882094120650827	0.2154265613805223	-0.07606942804420799	0.6779191192480544	0.046312006638735914	0.8225106761764399	0.5045222886481837	0.03975282150442717	0.3885242269919609	0.5416248616079624	0.03836337228321506	0.005683135186100807	0.5903297345801587	0.06258770066369623	0.012044214746107305	0.4158813014086985	-0.0016892019099027367	0.015525725538316965	0.44279034040331555	0.04869173419511531	-0.0354627151840695	0.6275390171064449	0.14946284279942784	1.3309846377823327	0.516575297563076	0.13134991358061698	1.566529005820271	0.4178477814253754	0.12847692946758021	1.4509438883404402	0.3675215443286378	0.302698851259606	1.2694294620081898	0.4857908811803412	0.3897669165543355	0.9921668986294863	0.5441918179362232	0.41733081824730744	0.7772826294587538	0.439118035825822	0.3943485512964343	0.6666131966179483	0.39721764096592727	0.4143247840817903	0.628188282700038	0.42627103308946374	0.42854580843081513	0.6363628087018955	0.4539914093954268	0.02819093487058097	1.2806802234301695	0.5104077877518758	0.025571732371522417	1.1102300004812806	0.37258789874637127	0.10149356551878458	1.304165074426005	0.26207378881623766	0.1110573622207712	1.380751343271333	0.30662050921783124	0.10317566956338524	1.4026662192486503	0.254572713399582	0.10110100383147591	1.387391417287647	0.21171286819613425	
209	4.019230769230769	0.2645971706587518	0.8187313148621638	0.5037306658264245	0.24185787872116132	0.3916588473796508	0.5441246568214894	0.22743926505185513	0.0027373503558134754	0.583058553445728	0.21962678076543662	0.018223477109209345	0.38764595736449314	0.2762137786141857	0.007132844706274538	0.42769729963116015	0.21525310548554064	-0.07587521371992302	0.6781688058613002	0.04613996514159735	0.8227321847992017	0.5037573058587071	0.039649722494914684	0.3893627423030325	0.5415934719303571	0.03818308555024355	0.005601179768831982	0.590205573625884	0.06178238646895487	0.010640579397317843	0.41788644382509	-0.0017600833697694255	0.016187558697118618	0.44323501508246	0.048684350435928135	-0.035925844309002065	0.6281098357956522	0.14968900459282747	1.3294272068242134	0.516331716940248	0.13062734184136288	1.5661554200791554	0.418260088444114	0.1281871886997783	1.4498210480204494	0.37264963093311976	0.3028265886670731	1.2689338270165331	0.48518057863973935	0.3896891374434951	0.9921900551153111	0.5441445749111199	0.41737136101722927	0.777271942952187	0.4390424689619307	0.39357585252635086	0.666304922327391	0.39555279056617987	0.4135551777412767	0.628876287855868	0.4241850269001733	0.4280109473562539	0.638351923275557	0.4529460831584932	0.028310592969474045	1.2797662137633337	0.5125373709577145	0.02677309190028796	1.113148022612851	0.3699521493074077	0.10126150769864463	1.3094333870045891	0.261144713113876	0.11129305712933268	1.3847875187935748	0.2987949371265508	0.10117663566198115	1.405968817752921	0.25430199991118557	0.09710678969528193	1.390463990888774	0.21546459595934797	
210	4.038461538461538	0.26463457085007563	0.8188427435028952	0.5034374404081888	0.24147279826986698	0.3924225320585962	0.543108809188987	0.22729487195796486	0.003096500049773118	0.5825053141492624	0.22045652802270493	0.01730617246417184	0.38789871650297636	0.27664230739130563	0.008380692537639595	0.42568902020583915	0.21512653420770309	-0.07552811021628894	0.6782690968416263	0.04600893398755881	0.8228047327293118	0.5031204846093961	0.039550667134868364	0.3903435528064322	0.5415141357538327	0.0380065006944127	0.005891681011760019	0.5899665522175122	0.061255379029458254	0.008983476892566886	0.42066831186081327	-0.0018908331662255279	0.016953623558588322	0.4439083164504374	0.048563866398248424	-0.03635430566713825	0.6285227473450917	0.1496154151132555	1.328018688179913	0.5159664189579422	0.1295504584730547	1.566242238643232	0.4187506671673737	0.12742096662504881	1.4490101537708702	0.3794815323907808	0.30289362742321946	1.2681504839449853	0.48475595568008717	0.38968631444322255	0.992190378800053	0.5440996686607126	0.4173940724513795	0.7772500769445455	0.4390481672976998	0.3925913978542501	0.6658435088619106	0.39456141279652635	0.4127913652043894	0.6295657454559322	0.42266500947137076	0.4272735913295096	0.640306576268637	0.4514454660550279	0.02802231118150536	1.2791724770493567	0.5143834107040066	0.028019435737818753	1.1159000833116344	0.36722693102439163	0.10096515094290198	1.3135874359959874	0.2623069719812408	0.11140241532392828	1.3877863637844192	0.2967851026501775	0.0994224208701254	1.4102784083375057	0.2551979160088228	0.09391160251528605	1.3927314959886645	0.21991626781100443	
211	4.057692307692308	0.26481731580592166	0.8187055720634925	0.5033677546848649	0.24108108615248464	0.3930216071552697	0.5420721770190471	0.2272552196345411	0.003286581379273984	0.5823864181448108	0.22086027041416156	0.016400437031729886	0.38813070568516406	0.2771565122872963	0.010001543971308327	0.42319230394132534	0.21506419923928285	-0.07499992740856905	0.6781471886238896	0.04592940699238996	0.8227060401421149	0.5026427212449036	0.039453583867402435	0.39140423029416976	0.5414011592953206	0.03784220136236185	0.006628747456067383	0.5895847758390285	0.06107230028923303	0.0077573311229970285	0.42311013953407767	-0.002034448043871909	0.017710936182005928	0.4446342495736091	0.04824250735554357	-0.03664088797461335	0.6288252426444364	0.1495049699028258	1.3270627159101323	0.515639652895839	0.1281108793067555	1.566471885934448	0.418974449890457	0.12632985979895037	1.4482227204583777	0.3872805946544206	0.302894648428251	1.2673710273087144	0.4846110662288806	0.3897227018043776	0.9921773460519873	0.5440338970112505	0.4174110260507762	0.7772926566046946	0.43906931490338225	0.3916268997860694	0.665486127480134	0.39434319405790363	0.41212933230580345	0.6304516155575349	0.42145722271417796	0.42649202480143145	0.6420542773268387	0.4496182661196262	0.027626644731741624	1.2789607017929239	0.5155159624675304	0.02894884585299167	1.1181509181221239	0.36531256956030783	0.10050624387693094	1.3166291514722042	0.26517487738214707	0.11132381506388841	1.3893240927899029	0.3018498361285231	0.09784918505085029	1.4160552453301136	0.2576642788009965	0.09173550144811775	1.394432332630677	0.22502463733510797	
212	4.076923076923077	0.26502650066369043	0.8183942218987815	0.5034899621499417	0.24068672578967354	0.39343701354098976	0.5410228984118529	0.22732229833927778	0.0032879283761270417	0.5826950943079513	0.22084257291589687	0.015678097806676693	0.3882806107475623	0.27734944357095376	0.01181137715457	0.42062226611495174	0.2150733703850794	-0.07430020381306884	0.6777770963067972	0.04591130666935897	0.8224239789080929	0.502365889758974	0.03936297664028224	0.3924251269738039	0.5413002468031163	0.037689759323798554	0.007757778605039456	0.5890666972812776	0.06122302996176937	0.0074769960691642365	0.4241076619116866	-0.00207358005464243	0.01852200108512895	0.4451192646764766	0.04772399582423754	-0.03675495996884858	0.6292269147279063	0.1496260209909574	1.3266267961492506	0.5154980215932441	0.12648500610911922	1.5665073198744184	0.41898173523758575	0.12506999461513513	1.4474001706766169	0.39491421260442294	0.3028359141128494	1.266796113021011	0.48477208079849793	0.38975384842509575	0.9921766110101897	0.5439474894596831	0.4174294480978036	0.7773705295489547	0.4390715240005556	0.3910062830064519	0.6656752182057438	0.3941044695557995	0.4116905841452829	0.6316515020286856	0.41968032746507955	0.42572544796750295	0.6435388797892819	0.4476248042822004	0.027462464518837708	1.279098309577165	0.5153135102260138	0.02927341115271301	1.1196757913145634	0.3650005543599719	0.09974750722283438	1.3188890345271185	0.26896453306402784	0.11129196963941398	1.3893612235146184	0.31396232929503287	0.09585971924556975	1.4230552672788055	0.26287556544165247	0.09031909082580353	1.3958148703319488	0.2308794727506554	
213	4.096153846153846	0.2651588022316637	0.817978372905003	0.5037174069265677	0.24029393445428837	0.3936351560222065	0.5399851592855647	0.22750158948100196	0.0030846018973410827	0.5834421124501892	0.22060491067643606	0.015262713437048929	0.38831354470317603	0.27704098259360116	0.013571584732715816	0.4181239340227643	0.2151060185120229	-0.07354977090397527	0.6773320774764942	0.045955266226677734	0.8219980306237684	0.5023153571049052	0.03928384069035168	0.3933015344827014	0.5412607419833034	0.03755212481852953	0.009163826687063253	0.5884722557478319	0.06159284026859822	0.008191449112810625	0.4232919364327891	-0.001965730880621239	0.019323776662671557	0.4451805573881454	0.04704465124104543	-0.03679755807765546	0.6298397470072378	0.15005145808606418	1.3265180775630663	0.5156099950763166	0.12502654699123758	1.5663302363278737	0.41893264586514545	0.12375831673889537	1.4467425675086705	0.4013012648493418	0.30278850135511026	1.2665209145833918	0.4849867741841786	0.3897662063255719	0.9922295078983219	0.5438808366094874	0.4174449860022068	0.7774407194060423	0.4390488371455339	0.39094246642053576	0.6666423505069043	0.3927587629490228	0.41154227375856584	0.6330731376617643	0.4166405183441506	0.4249321108579007	0.6447133965896462	0.44573486767147286	0.02750502862008945	1.2795170119951034	0.5136285806999139	0.02899479161072646	1.120477072729647	0.3663006286136308	0.09870902076158153	1.3204818175053543	0.27347506647100134	0.11140943434896701	1.387980396026871	0.3316213847765882	0.0922071298440677	1.4302931479439298	0.2736194263594006	0.08915284251693964	1.3968803664070846	0.23683645853445412	
214	4.115384615384615	0.2651646232168859	0.817543406727205	0.5039006430271408	0.2399155754031794	0.393579777696134	0.538991391707862	0.22777417308274756	0.0027046447672292723	0.5846043953083002	0.22037721276617567	0.015135707314733633	0.3882429855397919	0.2765274955737363	0.014952636277661864	0.4155600812121643	0.21504997251764058	-0.07295539572804201	0.6771866183471535	0.04603805112738706	0.8215401069795047	0.5024296729483397	0.03921363692706429	0.39399149964720476	0.5412945472254107	0.03743238897996465	0.010754325943986578	0.5878779799242088	0.062025376772788396	0.009599622255776812	0.42109966141903427	-0.001778501729731805	0.01984342265294814	0.44484090902741164	0.04623118888138463	-0.036929246550322724	0.6306645453986957	0.150689525073139	1.326633810254917	0.5159337678733751	0.12420881039806789	1.5662809208312354	0.4189400042008942	0.12254700108609637	1.4464476418517338	0.40558376921310435	0.30289761865392945	1.2665608967420388	0.48469102245304996	0.38976101190453527	0.992360174172205	0.5438638279667644	0.4174556496636217	0.7774964470109663	0.43900040922150696	0.39138744805941084	0.6681891007412599	0.3899946261051448	0.41156040421352474	0.6345305575084063	0.4124639829977292	0.4241586646625081	0.6455333584923822	0.44426425063004443	0.027483021226132637	1.2800201770619624	0.5109788090651636	0.028304948034214156	1.1206035386053772	0.3684803278574964	0.09749239392048266	1.3211641681825987	0.2792661203622109	0.1112843535142753	1.3855214773861064	0.35169052421705516	0.08606907926279468	1.4365305402777195	0.29239352722847184	0.08793984706374325	1.3974053066122036	0.24198796032257686	
